# Blender 4.1.1
# www.blender.org
mtllib pente.mtl
o Cube
v 1.000000 -1.000000 -1.000000
v 1.000000 -1.000000 1.000000
v -1.000000 1.000000 -1.000000
v -1.000000 -1.000000 -1.000000
v -1.000000 1.000000 1.000000
v -1.000000 -1.000000 1.000000
vn 0.7071 0.7071 -0.0000
vn -0.0000 -0.0000 1.0000
vn -1.0000 -0.0000 -0.0000
vn -0.0000 -1.0000 -0.0000
vn -0.0000 -0.0000 -1.0000
vt 0.625000 0.500000
vt 0.875000 0.750000
vt 0.625000 0.750000
vt 0.625000 1.000000
vt 0.375000 1.000000
vt 0.375000 0.000000
vt 0.625000 0.250000
vt 0.375000 0.250000
vt 0.125000 0.500000
vt 0.375000 0.750000
vt 0.125000 0.750000
vt 0.375000 0.500000
vt 0.875000 0.500000
vt 0.625000 0.000000
s 0
usemtl Material
f 1/1/1 5/2/1 2/3/1
f 2/3/2 5/4/2 6/5/2
f 6/6/3 3/7/3 4/8/3
f 4/9/4 2/10/4 6/11/4
f 4/8/5 3/7/5 1/12/5
f 1/1/1 3/13/1 5/2/1
f 6/6/3 5/14/3 3/7/3
f 4/9/4 1/12/4 2/10/4
