# Blender 4.1.1
# www.blender.org
mtllib plan2.mtl
o Plane
v -5.000000 0.000000 5.000000
v 5.000000 0.000000 5.000000
v -5.000000 0.000000 -5.000000
v 5.000000 0.000000 -5.000000
v -5.000000 0.078141 -3.571429
v -5.000000 0.078141 -2.142857
v -5.000000 0.000000 -0.714286
v -5.000000 0.000000 0.714286
v -5.000000 0.000000 2.142857
v -5.000000 0.000000 3.571429
v -3.571429 0.000000 5.000000
v -2.142857 0.000000 5.000000
v -0.714286 0.000000 5.000000
v 0.714286 0.000000 5.000000
v 2.142857 0.000000 5.000000
v 3.571429 0.000000 5.000000
v 5.000000 0.000000 3.571429
v 5.000000 0.000000 2.142857
v 5.000000 0.000000 0.714286
v 5.000000 0.000000 -0.714286
v 5.000000 0.000000 -2.142857
v 5.000000 0.000000 -3.571429
v 3.571429 0.000000 -5.000000
v 2.142857 0.000000 -5.000000
v 0.714286 0.000000 -5.000000
v -0.714286 0.000000 -5.000000
v -2.142857 0.078141 -5.000000
v -3.571429 0.078141 -5.000000
v -3.571429 0.000000 3.571429
v -3.571429 0.000000 2.142857
v -3.571429 0.000000 0.714286
v -3.571429 0.078141 -0.714286
v -3.571429 0.797855 -2.142857
v -3.571429 0.797855 -3.571429
v -2.142857 0.000000 3.571429
v -2.142857 0.000000 2.142857
v -2.142857 0.000000 0.714286
v -2.142857 0.078141 -0.714286
v -2.142857 0.797855 -2.142857
v -2.142857 0.797855 -3.571429
v -0.714286 0.000000 3.571429
v -0.714286 0.000000 2.142857
v -0.714286 0.000000 0.714286
v -0.714286 0.000000 -0.714286
v -0.714286 0.078141 -2.142857
v -0.714286 0.078141 -3.571429
v 0.714286 -1.284453 3.571429
v 0.714286 -1.284453 2.142857
v 0.714286 -1.284453 0.714286
v 0.714286 0.000000 -0.714286
v 0.714286 0.000000 -2.142857
v 0.714286 0.000000 -3.571429
v 2.142857 -1.284453 3.571429
v 2.142857 -1.284453 2.142857
v 2.142857 -1.284453 0.714286
v 2.142857 0.000000 -0.714286
v 2.142857 0.000000 -2.142857
v 2.142857 0.000000 -3.571429
v 3.571429 -1.284453 3.571429
v 3.571429 -1.284453 2.142857
v 3.571429 -1.284453 0.714286
v 3.571429 0.000000 -0.714286
v 3.571429 0.000000 -2.142857
v 3.571429 0.000000 -3.571429
vn -0.0000 1.0000 -0.0000
vn -0.0545 0.9970 -0.0545
vn -0.0000 0.8931 -0.4499
vn 0.0488 0.8920 -0.4494
vn -0.0000 0.9985 -0.0546
vn -0.0546 0.9985 -0.0000
vn -0.4494 0.8920 0.0488
vn -0.4499 0.8931 -0.0000
vn -0.0000 0.9985 0.0546
vn -0.0000 0.8931 0.4499
vn 0.0545 0.9970 0.0545
vn 0.4103 0.8144 0.4103
vn 0.4499 0.8931 -0.0000
vn 0.6686 0.7436 -0.0000
vn 0.0546 0.9985 -0.0000
vn -0.0000 0.7436 -0.6686
vn -0.0000 0.7436 0.6686
vn -0.5558 0.6182 -0.5558
vn -0.6686 0.7436 -0.0000
vn -0.4103 0.8144 -0.4103
vn 0.4494 0.8920 -0.0488
vn -0.0488 0.8920 0.4494
vn 0.5558 0.6182 0.5558
vt 0.857143 0.857143
vt 1.000000 1.000000
vt 0.857143 1.000000
vt 0.000000 0.857143
vt 0.142857 1.000000
vt 0.000000 1.000000
vt 0.142857 0.857143
vt 0.285714 1.000000
vt 0.285714 0.857143
vt 0.428571 1.000000
vt 0.428571 0.857143
vt 0.571429 1.000000
vt 0.571429 0.857143
vt 0.714286 1.000000
vt 0.714286 0.857143
vt 0.000000 0.000000
vt 0.142857 0.142857
vt 0.000000 0.142857
vt 0.142857 0.285714
vt 0.000000 0.285714
vt 0.142857 0.428571
vt 0.000000 0.428571
vt 0.142857 0.571429
vt 0.000000 0.571429
vt 0.142857 0.714286
vt 0.000000 0.714286
vt 0.142857 0.000000
vt 0.285714 0.142857
vt 0.285714 0.285714
vt 0.285714 0.428571
vt 0.285714 0.571429
vt 0.285714 0.714286
vt 0.285714 0.000000
vt 0.428571 0.142857
vt 0.428571 0.285714
vt 0.428571 0.428571
vt 0.428571 0.571429
vt 0.428571 0.714286
vt 0.428571 0.000000
vt 0.571429 0.142857
vt 0.571429 0.285714
vt 0.571429 0.428571
vt 0.571429 0.571429
vt 0.571429 0.714286
vt 0.571429 0.000000
vt 0.714286 0.142857
vt 0.714286 0.285714
vt 0.714286 0.428571
vt 0.714286 0.571429
vt 0.714286 0.714286
vt 0.714286 0.000000
vt 0.857143 0.142857
vt 0.857143 0.285714
vt 0.857143 0.428571
vt 0.857143 0.571429
vt 0.857143 0.714286
vt 0.857143 0.000000
vt 1.000000 0.142857
vt 1.000000 0.285714
vt 1.000000 0.428571
vt 1.000000 0.571429
vt 1.000000 0.714286
vt 1.000000 0.857143
vt 1.000000 0.000000
s 0
f 64/1/1 4/2/1 23/3/1
f 5/4/2 28/5/2 3/6/2
f 34/7/3 27/8/3 28/5/3
f 40/9/4 26/10/4 27/8/4
f 46/11/5 25/12/5 26/10/5
f 52/13/1 24/14/1 25/12/1
f 58/15/1 23/3/1 24/14/1
f 1/16/1 29/17/1 10/18/1
f 10/18/1 30/19/1 9/20/1
f 9/20/1 31/21/1 8/22/1
f 8/22/6 32/23/6 7/24/6
f 7/24/7 33/25/7 6/26/7
f 6/26/8 34/7/8 5/4/8
f 11/27/1 35/28/1 29/17/1
f 29/17/1 36/29/1 30/19/1
f 30/19/1 37/30/1 31/21/1
f 31/21/9 38/31/9 32/23/9
f 32/23/10 39/32/10 33/25/10
f 33/25/1 40/9/1 34/7/1
f 12/33/1 41/34/1 35/28/1
f 35/28/1 42/35/1 36/29/1
f 36/29/1 43/36/1 37/30/1
f 37/30/11 44/37/11 38/31/11
f 38/31/12 45/38/12 39/32/12
f 39/32/13 46/11/13 40/9/13
f 13/39/14 47/40/14 41/34/14
f 41/34/14 48/41/14 42/35/14
f 42/35/14 49/42/14 43/36/14
f 43/36/1 50/43/1 44/37/1
f 44/37/11 51/44/11 45/38/11
f 45/38/15 52/13/15 46/11/15
f 14/45/16 53/46/16 47/40/16
f 47/40/1 54/47/1 48/41/1
f 48/41/1 55/48/1 49/42/1
f 49/42/17 56/49/17 50/43/17
f 50/43/1 57/50/1 51/44/1
f 51/44/1 58/15/1 52/13/1
f 15/51/16 59/52/16 53/46/16
f 53/46/1 60/53/1 54/47/1
f 54/47/1 61/54/1 55/48/1
f 55/48/17 62/55/17 56/49/17
f 56/49/1 63/56/1 57/50/1
f 57/50/1 64/1/1 58/15/1
f 16/57/18 17/58/18 59/52/18
f 59/52/19 18/59/19 60/53/19
f 60/53/19 19/60/19 61/54/19
f 61/54/17 20/61/17 62/55/17
f 62/55/1 21/62/1 63/56/1
f 63/56/1 22/63/1 64/1/1
f 64/1/1 22/63/1 4/2/1
f 5/4/20 34/7/20 28/5/20
f 34/7/3 40/9/3 27/8/3
f 40/9/21 46/11/21 26/10/21
f 46/11/15 52/13/15 25/12/15
f 52/13/1 58/15/1 24/14/1
f 58/15/1 64/1/1 23/3/1
f 1/16/1 11/27/1 29/17/1
f 10/18/1 29/17/1 30/19/1
f 9/20/1 30/19/1 31/21/1
f 8/22/9 31/21/9 32/23/9
f 7/24/22 32/23/22 33/25/22
f 6/26/8 33/25/8 34/7/8
f 11/27/1 12/33/1 35/28/1
f 29/17/1 35/28/1 36/29/1
f 30/19/1 36/29/1 37/30/1
f 31/21/9 37/30/9 38/31/9
f 32/23/10 38/31/10 39/32/10
f 33/25/1 39/32/1 40/9/1
f 12/33/1 13/39/1 41/34/1
f 35/28/1 41/34/1 42/35/1
f 36/29/1 42/35/1 43/36/1
f 37/30/1 43/36/1 44/37/1
f 38/31/11 44/37/11 45/38/11
f 39/32/13 45/38/13 46/11/13
f 13/39/16 14/45/16 47/40/16
f 41/34/14 47/40/14 48/41/14
f 42/35/14 48/41/14 49/42/14
f 43/36/23 49/42/23 50/43/23
f 44/37/1 50/43/1 51/44/1
f 45/38/15 51/44/15 52/13/15
f 14/45/16 15/51/16 53/46/16
f 47/40/1 53/46/1 54/47/1
f 48/41/1 54/47/1 55/48/1
f 49/42/17 55/48/17 56/49/17
f 50/43/1 56/49/1 57/50/1
f 51/44/1 57/50/1 58/15/1
f 15/51/16 16/57/16 59/52/16
f 53/46/1 59/52/1 60/53/1
f 54/47/1 60/53/1 61/54/1
f 55/48/17 61/54/17 62/55/17
f 56/49/1 62/55/1 63/56/1
f 57/50/1 63/56/1 64/1/1
f 16/57/1 2/64/1 17/58/1
f 59/52/19 17/58/19 18/59/19
f 60/53/19 18/59/19 19/60/19
f 61/54/19 19/60/19 20/61/19
f 62/55/1 20/61/1 21/62/1
f 63/56/1 21/62/1 22/63/1
