# Blender 4.1.1
# www.blender.org
mtllib sphereLow.mtl
o Sphere
v 0.000000 -0.250000 -0.433013
v 0.375000 0.250000 0.216506
v 0.375000 -0.250000 0.216506
v 0.000000 -0.500000 0.000000
v -0.375000 0.250000 0.216506
v -0.375000 -0.250000 0.216506
v 0.000000 0.500000 0.000000
v 0.000000 0.250000 -0.433013
vn 0.6547 -0.6547 -0.3780
vn 0.8660 -0.0000 -0.5000
vn 0.6547 0.6547 -0.3780
vn -0.0000 -0.6547 0.7559
vn -0.0000 -0.0000 1.0000
vn -0.0000 0.6547 0.7559
vn -0.6547 -0.6547 -0.3780
vn -0.8660 -0.0000 -0.5000
vn -0.6547 0.6547 -0.3780
vt 0.500000 0.000000
vt 0.666667 0.333333
vt 0.333333 0.333333
vt 0.333333 0.666667
vt 0.666667 0.666667
vt 0.500000 1.000000
vt 0.166667 0.000000
vt 0.000000 0.333333
vt 0.000000 0.666667
vt 0.166667 1.000000
vt 0.833333 0.000000
vt 1.000000 0.333333
vt 1.000000 0.666667
vt 0.833333 1.000000
s 0
f 4/1/1 1/2/1 3/3/1
f 1/2/2 2/4/2 3/3/2
f 8/5/3 7/6/3 2/4/3
f 4/7/4 3/3/4 6/8/4
f 3/3/5 5/9/5 6/8/5
f 2/4/6 7/10/6 5/9/6
f 4/11/7 6/12/7 1/2/7
f 6/12/8 8/5/8 1/2/8
f 5/13/9 7/14/9 8/5/9
f 1/2/2 8/5/2 2/4/2
f 3/3/5 2/4/5 5/9/5
f 6/12/8 5/13/8 8/5/8
